<svg width="123" height="64" viewBox="0 0 123 64" fill="none" xmlns="http://www.w3.org/2000/svg">
  <path
    d="M95.9775 45.6245C95.3458 45.6758 94.7755 45.8492 94.2567 46.1766H94.2534C93.0966 46.9215 91.7399 47.403 90.264 47.525C85.5431 47.9167 81.4022 44.4944 81.0155 39.8811C80.6288 35.2678 84.1413 31.2067 88.8622 30.8151C90.7603 30.6577 92.8903 31.3961 94.0698 32.0222C94.7851 32.401 95.5746 32.6867 96.4447 32.6129C98.5007 32.4427 100.028 30.6417 99.8573 28.5935C99.7606 27.4474 99.1645 26.449 98.288 25.8358C95.4071 24.038 91.9204 23.1166 88.2435 23.4216C81.5569 23.977 75.982 28.6127 74.0646 34.6579V23.9192C74.0646 21.5018 72.0989 19.5435 69.6724 19.5435C67.2459 19.5435 65.2802 21.5018 65.2802 23.9192V26.3687C65.1255 25.9225 64.9483 25.4859 64.7485 25.0621L64.5584 24.6672C62.3348 20.3589 58.368 18.1598 53.4956 18.1598C51.0852 18.1598 48.7553 18.8179 46.722 20.0635C46.6962 20.0796 46.6672 20.0989 46.635 20.1181C45.8583 18.6799 44.3373 17.2256 42.5843 17.2256C40.045 17.2256 37.9858 19.277 37.9858 21.8068C37.9858 21.8228 37.9858 25.6656 37.9858 30.5871V30.8343C35.598 26.2178 30.7675 23.062 25.1958 23.062H25.0283C17.0784 23.0588 10.6399 29.4731 10.6367 37.3867C10.6399 43.4703 14.6777 49.0082 20.4588 50.9537C23.749 52.0612 27.4322 51.9521 30.6451 50.623C32.4432 49.8782 33.6967 48.1831 32.9717 46.1895C32.3401 44.4495 30.4098 43.5506 28.6665 44.1798C28.6536 44.1862 28.6374 44.1926 28.6246 44.1959C24.9348 45.5956 20.5684 44.1926 18.7283 40.6323C18.6285 40.4237 18.7735 40.1733 19.0667 40.1733C24.4128 40.1733 29.7589 40.1733 35.105 40.1701H35.1146C36.2199 40.1701 37.2221 39.7559 37.9891 39.0817V39.4702C37.9891 45.8685 37.9891 51.5508 37.9891 51.5508C38.0052 53.9297 39.9451 55.8559 42.3362 55.8559C44.7305 55.8559 46.6736 53.9265 46.6865 51.5444V40.8507C48.7296 42.1091 51.0723 42.7769 53.4988 42.7769C58.426 42.7769 62.6506 40.3659 64.7549 35.9227C64.9547 35.499 65.132 35.072 65.2834 34.6354V46.3211C65.2834 48.7385 67.2491 50.6968 69.6756 50.6968C72.1022 50.6968 74.0679 48.7385 74.0679 46.3211V43.8363C76.2785 50.7835 83.3164 55.5413 90.886 54.912C93.1062 54.7258 95.1847 54.1127 97.0441 53.156C97.5049 52.9216 97.9496 52.6648 98.3782 52.3887C99.4545 51.6632 100.105 50.3822 99.9894 49.0018C99.8186 46.9664 98.0237 45.4543 95.9775 45.6245ZM32.585 34.0062C32.5141 34.1249 32.3401 34.3208 31.963 34.3208L19.2472 34.3529H19.2117C18.8895 34.3529 18.6091 34.2052 18.4673 33.958C18.332 33.7204 18.3384 33.4283 18.4834 33.1779C19.5275 31.3865 21.2064 30.0767 23.2108 29.4924C23.9552 29.2741 24.7254 29.1649 25.4988 29.1649C28.3378 29.1649 31.0898 30.7412 32.5141 33.1811C32.6945 33.5053 32.7171 33.7814 32.585 34.0062ZM52.7577 35.9902C49.4321 35.9902 46.7349 33.3994 46.7349 30.2051C46.7349 27.0108 49.4321 24.42 52.7577 24.42C56.0832 24.42 58.7805 27.0108 58.7805 30.2051C58.7805 33.3994 56.0832 35.9902 52.7577 35.9902Z"
    fill="#0a96e6" />
  <path
    d="M68.6802 17.823C71.429 18.388 73.9361 16.5934 74.4646 14.0315C75.0188 11.3509 73.4076 8.83394 70.6588 8.26891C68.0261 7.72957 65.4287 9.3797 64.8745 12.0604C64.3428 14.6254 66.0475 17.2836 68.6802 17.823Z"
    fill="#0a96e6" />
  <path
    d="M106.572 44.3343C108.998 44.3343 110.964 42.376 110.964 39.9586V17.5535C110.964 15.1361 108.998 13.1777 106.572 13.1777C104.145 13.1777 102.18 15.1361 102.18 17.5535V39.9586C102.18 42.3728 104.145 44.3343 106.572 44.3343Z"
    fill="#0a96e6" />
  <path
    d="M107.565 46.203C104.816 45.638 102.309 47.4326 101.781 49.9945C101.226 52.6751 102.838 55.192 105.586 55.7571C108.219 56.2996 110.816 54.6463 111.371 51.9656C111.902 49.4037 110.198 46.7456 107.565 46.203Z"
    fill="#0a96e6" />
</svg>